<svg width="59" height="59" viewBox="0 0 59 59" fill="none" xmlns="http://www.w3.org/2000/svg">
<rect width="59" height="59" rx="29.5" fill="#0019FF"/>
<path d="M28.9832 24.5006H29.0184L29 24.4844L31.5829 22.0009H31.6364L31.6089 21.9759L31.6012 21.9671V21.9832L31.5829 22.0009H26.4187L26.4003 21.9832V21.9671L26.3651 22.0009H21.1994V21.9494L21.1474 22.0009H16V21.9332L18.5294 19.5012H18.5997V19.4321L21.129 17H42V37.0697L39.4707 39.5003H39.4003V39.5694L36.871 42H36.7991V37.052L36.8526 37.0021H36.7991V32.035L36.8266 32.01L36.8358 32.0012H36.8174L36.7991 31.9835V27.0179L36.8174 27.0018H36.8358L36.8266 26.9915L36.7991 26.9665V27.0179L34.2177 29.5015L34.1994 29.4838V29.5176L31.618 32.0012H31.6012V32.0188L29.0184 34.5009H28.9832L29 34.5185L26.4187 37.0021H26.3651L26.3911 37.0271L23.8174 39.5003H23.7471L23.7823 39.5341L21.2177 42H21.129L18.5997 39.5694V39.5003H18.5294L16 37.0697V36.9844L18.5645 34.5185L18.5997 34.5523V34.4847L21.1734 32.01L21.1994 32.035V31.9835L23.7823 29.5015L23.8006 29.5176V29.4838L26.382 27.0018H26.4003V26.9841L28.9832 24.5006Z" fill="white"/>
</svg>
