<svg width="105" height="109" viewBox="0 0 105 109" fill="none" xmlns="http://www.w3.org/2000/svg">
<path d="M58.8053 41.7837L51.8689 14.5227C50.7506 10.1356 44.5258 10.1356 43.4075 14.5227L36.471 41.7837C36.08 43.3086 34.907 44.5051 33.3899 44.9196L3.21202 53.1698C-1.15943 54.3663 -1.03429 60.6067 3.37626 61.6312L31.169 68.0828C32.7408 68.4503 33.992 69.6546 34.3987 71.2186L43.4075 105.346C44.5492 109.678 50.7036 109.678 51.8454 105.346L60.8542 71.2186C61.2686 69.6546 62.512 68.4503 64.0839 68.0828L91.8766 61.6312C96.2871 60.6067 96.4123 54.3663 92.0408 53.1698L61.8629 44.9196C60.3693 44.4973 59.1963 43.3008 58.8053 41.7837Z" fill="#0019FF"/>
<path d="M89.9989 12.2229L87.2227 1.31378C86.777 -0.437927 84.2824 -0.437927 83.8366 1.31378L81.0605 12.2229C80.9041 12.8328 80.4349 13.3098 79.8327 13.4741L67.7585 16.7742C66.0068 17.2512 66.0615 19.7458 67.821 20.1603L78.9412 22.7409C79.5747 22.8895 80.0673 23.3665 80.2315 24L83.8366 37.6539C84.298 39.39 86.7536 39.39 87.2149 37.6539L90.82 24C90.9842 23.3744 91.4847 22.8895 92.1103 22.7409L103.231 20.1603C104.998 19.7536 105.045 17.2512 103.293 16.7742L91.2188 13.4741C90.6245 13.3098 90.1553 12.8328 89.9989 12.2229Z" fill="#0019FF"/>
</svg>
